<svg width="250" height="40" viewBox="0 0 250 40" fill="none" xmlns="http://www.w3.org/2000/svg">
<path d="M10.28 38.2C9.29333 38.2 8.58667 37.9867 8.16 37.56C7.73333 37.1067 7.52 36.2667 7.52 35.04C7.52 34.2133 7.6 33.16 7.76 31.88C7.94667 30.5733 8.24 28.7867 8.64 26.52C9.33333 22.3333 9.88 18.7067 10.28 15.64C10.52 13.72 10.64 12.12 10.64 10.84C10.64 9.64 10.2 9.04 9.32 9.04C8.62667 9.04 7.78667 9.4 6.8 10.12C5.84 10.8133 4.77333 11.9333 3.6 13.48C3.22667 13.9867 2.81333 14.24 2.36 14.24C1.98667 14.24 1.65333 14.0667 1.36 13.72C1.09333 13.3467 0.96 12.9333 0.96 12.48C0.96 12.0533 1.04 11.6267 1.2 11.2C1.38667 10.7467 1.68 10.24 2.08 9.68C3.36 7.89333 4.78667 6.52 6.36 5.56C7.93333 4.57333 9.50667 4.08 11.08 4.08C12.5467 4.08 13.6667 4.54667 14.44 5.48C15.24 6.41333 15.64 7.77333 15.64 9.56C15.64 10.28 15.5733 11.1333 15.44 12.12C15.3067 13.08 15.1867 13.8667 15.08 14.48C14.9733 15.0933 14.8933 15.52 14.84 15.76C16.36 11.4133 18.0667 8.38666 19.96 6.68C21.8533 4.94666 23.9333 4.08 26.2 4.08C27.9333 4.08 29.2933 4.69333 30.28 5.92C31.2933 7.14666 31.8 8.88 31.8 11.12C31.8 12 31.68 13.0933 31.44 14.4C32.7733 10.72 34.3333 8.08 36.12 6.48C37.9067 4.88 39.96 4.08 42.28 4.08C44.1467 4.08 45.5733 4.68 46.56 5.88C47.5733 7.08 48.08 8.76 48.08 10.92C48.08 12.0933 47.9067 13.52 47.56 15.2L45.12 26.64C44.8533 27.9733 44.72 29.12 44.72 30.08C44.72 31.2 44.9733 32.04 45.48 32.6C46.0133 33.16 46.7467 33.44 47.68 33.44C48.56 33.44 49.4133 33.1467 50.24 32.56C51.0933 31.9733 52.0933 31 53.24 29.64C53.56 29.2667 53.92 29.08 54.32 29.08C54.6667 29.08 54.9333 29.24 55.12 29.56C55.3333 29.88 55.44 30.32 55.44 30.88C55.44 31.92 55.1867 32.7467 54.68 33.36C53.2933 35.04 51.92 36.2667 50.56 37.04C49.2 37.8133 47.7733 38.2 46.28 38.2C44.0133 38.2 42.24 37.5333 40.96 36.2C39.68 34.84 39.04 33.0267 39.04 30.76C39.04 29.1867 39.36 26.9067 40 23.92L41.6 16.6C41.6533 16.36 41.7467 15.9333 41.88 15.32C42.0133 14.7067 42.12 14.1333 42.2 13.6C42.28 13.04 42.32 12.4933 42.32 11.96C42.32 11.0267 42.1333 10.3333 41.76 9.88C41.4133 9.4 40.9067 9.16 40.24 9.16C38.9867 9.16 37.6667 9.97333 36.28 11.6C34.92 13.2 33.6133 15.8667 32.36 19.6C31.1333 23.3333 30.1333 28.1867 29.36 34.16C29.1733 35.76 28.84 36.84 28.36 37.4C27.9067 37.9333 27.16 38.2 26.12 38.2C25.2133 38.2 24.5467 37.9867 24.12 37.56C23.72 37.1333 23.52 36.3333 23.52 35.16C23.52 34.0667 23.6667 32.64 23.96 30.88C24.2533 29.0933 24.6267 27 25.08 24.6C26.3067 18.1467 26.92 13.9867 26.92 12.12C26.92 11.1067 26.72 10.36 26.32 9.88C25.9467 9.4 25.3733 9.16 24.6 9.16C23.2933 9.16 21.9467 9.90667 20.56 11.4C19.1733 12.8667 17.8133 15.4933 16.48 19.28C15.1733 23.04 14.08 28.1333 13.2 34.56C13.0133 35.92 12.7333 36.8667 12.36 37.4C12.0133 37.9333 11.32 38.2 10.28 38.2ZM70.0569 29.08C70.4035 29.08 70.6702 29.24 70.8569 29.56C71.0702 29.88 71.1769 30.32 71.1769 30.88C71.1769 31.9467 70.9235 32.7733 70.4169 33.36C69.4302 34.56 68.0302 35.6667 66.2169 36.68C64.4302 37.6933 62.5102 38.2 60.4569 38.2C57.6569 38.2 55.4835 37.44 53.9369 35.92C52.3902 34.4 51.6169 32.32 51.6169 29.68C51.6169 27.84 52.0035 26.1333 52.7769 24.56C53.5502 22.96 54.6169 21.6933 55.9769 20.76C57.3635 19.8267 58.9235 19.36 60.6569 19.36C62.2035 19.36 63.4435 19.8267 64.3769 20.76C65.3102 21.6667 65.7769 22.9067 65.7769 24.48C65.7769 26.32 65.1102 27.9067 63.7769 29.24C62.4702 30.5467 60.2435 31.5867 57.0969 32.36C57.7635 33.5867 59.0302 34.2 60.8969 34.2C62.0969 34.2 63.4569 33.7867 64.9769 32.96C66.5235 32.1067 67.8569 31 68.9769 29.64C69.2969 29.2667 69.6569 29.08 70.0569 29.08ZM59.9769 23.28C58.9902 23.28 58.1502 23.8533 57.4569 25C56.7902 26.1467 56.4569 27.5333 56.4569 29.16V29.24C58.0302 28.8667 59.2702 28.3067 60.1769 27.56C61.0835 26.8133 61.5369 25.9467 61.5369 24.96C61.5369 24.4533 61.3902 24.0533 61.0969 23.76C60.8302 23.44 60.4569 23.28 59.9769 23.28ZM90.12 29.08C90.4667 29.08 90.7333 29.24 90.92 29.56C91.1333 29.88 91.24 30.32 91.24 30.88C91.24 31.9467 90.9867 32.7733 90.48 33.36C89.2533 34.7733 87.9867 35.9333 86.68 36.84C85.4 37.7467 83.9333 38.2 82.28 38.2C80.92 38.2 79.8933 37.8133 79.2 37.04C78.5067 36.24 78.16 35.0933 78.16 33.6C78.16 32.8533 78.3467 31.52 78.72 29.6C79.0667 27.92 79.24 26.76 79.24 26.12C79.24 25.6933 79.0933 25.48 78.8 25.48C78.4533 25.48 77.96 25.9333 77.32 26.84C76.68 27.72 76.04 28.8933 75.4 30.36C74.76 31.8267 74.24 33.3733 73.84 35C73.3333 37.1333 72.08 38.2 70.08 38.2C69.28 38.2 68.7467 37.92 68.48 37.36C68.24 36.7733 68.12 35.7333 68.12 34.24C68.12 33.3867 68.1333 32.7067 68.16 32.2L68.2 29C68.2 24.8933 68.6133 20.6133 69.44 16.16C70.2933 11.7067 71.5333 7.97333 73.16 4.96C74.8133 1.92 76.7867 0.399998 79.08 0.399998C80.3067 0.399998 81.2933 0.933331 82.04 2C82.8133 3.04 83.2 4.4 83.2 6.08C83.2 8.77333 82.4133 11.5733 80.84 14.48C79.2667 17.36 76.7067 20.7333 73.16 24.6C73.08 25.9867 73.04 27.4133 73.04 28.88C73.92 26.6133 74.8933 24.7733 75.96 23.36C77.0533 21.92 78.12 20.8933 79.16 20.28C80.2267 19.6667 81.2 19.36 82.08 19.36C83.8133 19.36 84.68 20.2267 84.68 21.96C84.68 23 84.3867 24.88 83.8 27.6C83.2933 29.92 83.04 31.4533 83.04 32.2C83.04 33.2667 83.4267 33.8 84.2 33.8C84.7333 33.8 85.36 33.48 86.08 32.84C86.8267 32.1733 87.8133 31.1067 89.04 29.64C89.36 29.2667 89.72 29.08 90.12 29.08ZM78.24 4.36C77.76 4.36 77.2267 5.05333 76.64 6.44C76.0533 7.8 75.48 9.65333 74.92 12C74.3867 14.32 73.9467 16.8533 73.6 19.6C75.2533 17.6533 76.6133 15.5333 77.68 13.24C78.7733 10.9467 79.32 8.86667 79.32 7C79.32 6.14667 79.2267 5.49333 79.04 5.04C78.8533 4.58667 78.5867 4.36 78.24 4.36ZM105.838 29.08C106.185 29.08 106.451 29.24 106.638 29.56C106.851 29.88 106.958 30.32 106.958 30.88C106.958 31.9467 106.705 32.7733 106.198 33.36C105.211 34.56 103.811 35.6667 101.998 36.68C100.211 37.6933 98.2915 38.2 96.2381 38.2C93.4381 38.2 91.2648 37.44 89.7181 35.92C88.1715 34.4 87.3981 32.32 87.3981 29.68C87.3981 27.84 87.7848 26.1333 88.5581 24.56C89.3315 22.96 90.3981 21.6933 91.7581 20.76C93.1448 19.8267 94.7048 19.36 96.4381 19.36C97.9848 19.36 99.2248 19.8267 100.158 20.76C101.091 21.6667 101.558 22.9067 101.558 24.48C101.558 26.32 100.891 27.9067 99.5581 29.24C98.2515 30.5467 96.0248 31.5867 92.8781 32.36C93.5448 33.5867 94.8115 34.2 96.6781 34.2C97.8781 34.2 99.2381 33.7867 100.758 32.96C102.305 32.1067 103.638 31 104.758 29.64C105.078 29.2667 105.438 29.08 105.838 29.08ZM95.7581 23.28C94.7715 23.28 93.9315 23.8533 93.2381 25C92.5715 26.1467 92.2381 27.5333 92.2381 29.16V29.24C93.8115 28.8667 95.0515 28.3067 95.9581 27.56C96.8648 26.8133 97.3181 25.9467 97.3181 24.96C97.3181 24.4533 97.1715 24.0533 96.8781 23.76C96.6115 23.44 96.2381 23.28 95.7581 23.28ZM126.226 29.08C126.573 29.08 126.839 29.24 127.026 29.56C127.239 29.88 127.346 30.32 127.346 30.88C127.346 31.9467 127.093 32.7733 126.586 33.36C125.493 34.6933 124.293 35.84 122.986 36.8C121.679 37.7333 120.386 38.2 119.106 38.2C117.079 38.2 115.533 37.0133 114.466 34.64C113.346 36.0533 112.359 37 111.506 37.48C110.679 37.96 109.706 38.2 108.586 38.2C106.959 38.2 105.613 37.6 104.546 36.4C103.506 35.1733 102.986 33.5867 102.986 31.64C102.986 29.5067 103.439 27.5333 104.346 25.72C105.253 23.88 106.493 22.3867 108.066 21.24C109.666 20.0667 111.453 19.3733 113.426 19.16C113.933 13.9867 114.893 9.57333 116.306 5.92C117.746 2.24 119.626 0.399998 121.946 0.399998C123.093 0.399998 124.039 0.919998 124.786 1.96C125.559 3 125.946 4.57333 125.946 6.68C125.946 9.66667 125.213 13.16 123.746 17.16C122.279 21.16 120.319 25.2667 117.866 29.48C117.973 31.0267 118.199 32.1333 118.546 32.8C118.919 33.4667 119.386 33.8 119.946 33.8C120.666 33.8 121.399 33.48 122.146 32.84C122.893 32.2 123.893 31.1333 125.146 29.64C125.466 29.2667 125.826 29.08 126.226 29.08ZM121.506 4.32C120.999 4.32 120.493 5.22666 119.986 7.04C119.479 8.82667 119.039 11.1733 118.666 14.08C118.319 16.9867 118.066 20.0267 117.906 23.2C120.893 16.6933 122.386 11.4667 122.386 7.52C122.386 6.50667 122.293 5.72 122.106 5.16C121.946 4.6 121.746 4.32 121.506 4.32ZM109.986 34.16C110.493 34.16 110.999 33.96 111.506 33.56C112.013 33.1333 112.653 32.36 113.426 31.24C113.159 29.8 113.026 28.1867 113.026 26.4C113.026 25.76 113.053 24.72 113.106 23.28C111.639 23.7333 110.413 24.72 109.426 26.24C108.466 27.7333 107.986 29.4 107.986 31.24C107.986 33.1867 108.653 34.16 109.986 34.16ZM129.612 16.72C128.492 16.72 127.652 16.4667 127.092 15.96C126.532 15.4267 126.252 14.6933 126.252 13.76C126.252 12.8267 126.612 12.0533 127.332 11.44C128.079 10.8 128.999 10.48 130.092 10.48C131.079 10.48 131.879 10.72 132.492 11.2C133.105 11.68 133.412 12.36 133.412 13.24C133.412 14.3067 133.065 15.16 132.372 15.8C131.679 16.4133 130.759 16.72 129.612 16.72ZM125.772 38.2C124.919 38.2 124.332 38.0267 124.012 37.68C123.692 37.3333 123.532 36.7867 123.532 36.04C123.532 35.8267 123.559 35.4533 123.612 34.92C124.039 30.04 124.745 25.6 125.732 21.6C125.945 20.7733 126.292 20.2 126.772 19.88C127.279 19.5333 128.079 19.36 129.172 19.36C130.319 19.36 130.892 19.8267 130.892 20.76C130.892 20.8933 130.865 21.1467 130.812 21.52C129.612 27.2267 128.892 32.0133 128.652 35.88C128.599 36.7333 128.345 37.3333 127.892 37.68C127.439 38.0267 126.732 38.2 125.772 38.2ZM180.585 29.08C180.932 29.08 181.198 29.24 181.385 29.56C181.598 29.88 181.705 30.32 181.705 30.88C181.705 31.92 181.452 32.7467 180.945 33.36C178.305 36.5867 175.492 38.2 172.505 38.2C169.918 38.2 167.852 37.2 166.305 35.2C164.758 33.2 163.985 30.3333 163.985 26.6C163.985 25.6933 164.025 24.7867 164.105 23.88C162.345 24.2 160.425 24.44 158.345 24.6C156.958 24.7067 156.012 24.7733 155.505 24.8C154.972 27.52 154.225 30.8533 153.265 34.8C152.705 37.12 151.638 38.28 150.065 38.28C148.358 38.28 147.505 37.5067 147.505 35.96C147.505 35.6133 147.572 35.1333 147.705 34.52C148.612 30.8667 149.332 27.7733 149.865 25.24L147.945 25.32C147.065 25.32 146.425 25.1733 146.025 24.88C145.625 24.56 145.425 24.0533 145.425 23.36C145.425 22.48 145.678 21.84 146.185 21.44C146.692 21.0133 147.532 20.7733 148.705 20.72L150.825 20.64C151.518 16.88 151.865 14.0133 151.865 12.04C151.865 10.7867 151.678 9.93333 151.305 9.48C150.932 9.02667 150.438 8.8 149.825 8.8C147.958 8.8 145.852 10.36 143.505 13.48C143.158 13.9333 142.772 14.16 142.345 14.16C141.972 14.16 141.652 13.9867 141.385 13.64C141.118 13.2933 140.985 12.8533 140.985 12.32C140.985 11.4933 141.318 10.6133 141.985 9.68C143.158 8.05333 144.638 6.72 146.425 5.68C148.212 4.61333 150.025 4.08 151.865 4.08C153.598 4.08 154.932 4.68 155.865 5.88C156.825 7.05333 157.305 8.89333 157.305 11.4C157.305 13.6133 156.985 16.6133 156.345 20.4L160.265 20.2C161.945 20.12 163.385 19.9867 164.585 19.8C165.065 16.8667 165.798 14.12 166.785 11.56C167.772 9 168.998 6.92 170.465 5.32C171.932 3.72 173.572 2.92 175.385 2.92C176.718 2.92 177.772 3.45333 178.545 4.52C179.318 5.56 179.705 6.93333 179.705 8.64C179.705 15.2533 176.332 19.84 169.585 22.4C169.505 23.4667 169.465 24.5733 169.465 25.72C169.465 28.52 169.812 30.5067 170.505 31.68C171.198 32.8533 172.172 33.44 173.425 33.44C174.518 33.44 175.518 33.16 176.425 32.6C177.332 32.0133 178.358 31.0267 179.505 29.64C179.825 29.2667 180.185 29.08 180.585 29.08ZM175.185 6.4C174.598 6.4 173.972 6.93333 173.305 8C172.665 9.06666 172.052 10.52 171.465 12.36C170.878 14.2 170.412 16.2133 170.065 18.4C172.198 17.52 173.772 16.2667 174.785 14.64C175.798 13.0133 176.305 10.92 176.305 8.36C176.305 7.74666 176.198 7.26666 175.985 6.92C175.772 6.57333 175.505 6.4 175.185 6.4ZM183.387 38.2C181.734 38.2 180.414 37.6 179.427 36.4C178.44 35.2 177.947 33.6267 177.947 31.68C177.947 29.5467 178.44 27.5333 179.427 25.64C180.414 23.72 181.72 22.1867 183.347 21.04C185 19.8667 186.747 19.28 188.587 19.28C189.174 19.28 189.56 19.4 189.747 19.64C189.96 19.8533 190.134 20.2533 190.267 20.84C190.827 20.7333 191.414 20.68 192.027 20.68C193.334 20.68 193.987 21.1467 193.987 22.08C193.987 22.64 193.787 23.9733 193.387 26.08C192.774 29.1467 192.467 31.28 192.467 32.48C192.467 32.88 192.56 33.2 192.747 33.44C192.96 33.68 193.227 33.8 193.547 33.8C194.054 33.8 194.667 33.48 195.387 32.84C196.107 32.1733 197.08 31.1067 198.307 29.64C198.627 29.2667 198.987 29.08 199.387 29.08C199.734 29.08 200 29.24 200.187 29.56C200.4 29.88 200.507 30.32 200.507 30.88C200.507 31.9467 200.254 32.7733 199.747 33.36C198.654 34.72 197.494 35.8667 196.267 36.8C195.04 37.7333 193.854 38.2 192.707 38.2C191.827 38.2 191.014 37.9067 190.267 37.32C189.547 36.7067 189 35.88 188.627 34.84C187.24 37.08 185.494 38.2 183.387 38.2ZM184.827 34.16C185.414 34.16 185.974 33.8133 186.507 33.12C187.04 32.4267 187.427 31.5067 187.667 30.36L189.147 23C188.027 23.0267 186.987 23.4533 186.027 24.28C185.094 25.08 184.347 26.1467 183.787 27.48C183.227 28.8133 182.947 30.2267 182.947 31.72C182.947 32.5467 183.107 33.16 183.427 33.56C183.774 33.96 184.24 34.16 184.827 34.16ZM204.696 39.08C203.309 39.08 202.243 38.76 201.496 38.12C200.776 37.48 200.416 36.76 200.416 35.96C200.416 35.2667 200.669 34.6667 201.176 34.16C201.683 33.6533 202.429 33.4 203.416 33.4C203.763 33.4 204.163 33.44 204.616 33.52C205.096 33.5733 205.456 33.6133 205.696 33.64C205.669 32.9467 205.509 32.2933 205.216 31.68C204.949 31.0667 204.603 30.48 204.176 29.92C203.749 29.3333 203.349 28.8267 202.976 28.4C202.149 29.9733 201.323 31.28 200.496 32.32C199.696 33.36 198.816 34.3467 197.856 35.28C197.376 35.76 196.869 36 196.336 36C195.909 36 195.563 35.8533 195.296 35.56C195.029 35.24 194.896 34.8533 194.896 34.4C194.896 33.8667 195.083 33.3733 195.456 32.92L195.976 32.28C197.443 30.4667 198.549 28.9733 199.296 27.8C199.749 27.0267 200.283 26 200.896 24.72C201.509 23.4133 202.109 22.0667 202.696 20.68C203.203 19.5067 204.256 18.92 205.856 18.92C206.603 18.92 207.123 18.9867 207.416 19.12C207.709 19.2533 207.856 19.4667 207.856 19.76C207.856 19.92 207.803 20.1733 207.696 20.52C207.589 20.8667 207.443 21.2133 207.256 21.56C206.776 22.52 206.536 23.3333 206.536 24C206.536 24.4 206.669 24.84 206.936 25.32C207.229 25.8 207.669 26.4 208.256 27.12C209.109 28.24 209.749 29.2 210.176 30C210.629 30.7733 210.856 31.6267 210.856 32.56C210.856 32.8267 210.829 33.2 210.776 33.68C212.083 33.1733 213.616 31.8267 215.376 29.64C215.696 29.2667 216.056 29.08 216.456 29.08C216.803 29.08 217.069 29.24 217.256 29.56C217.469 29.88 217.576 30.32 217.576 30.88C217.576 31.8933 217.323 32.72 216.816 33.36C215.483 35.0133 214.203 36.1467 212.976 36.76C211.776 37.3467 210.283 37.6667 208.496 37.72C207.429 38.6267 206.163 39.08 204.696 39.08ZM219.246 38.2C217.593 38.2 216.273 37.6 215.286 36.4C214.3 35.2 213.806 33.6267 213.806 31.68C213.806 29.5467 214.3 27.5333 215.286 25.64C216.273 23.72 217.58 22.1867 219.206 21.04C220.86 19.8667 222.606 19.28 224.446 19.28C225.033 19.28 225.42 19.4 225.606 19.64C225.82 19.8533 225.993 20.2533 226.126 20.84C226.686 20.7333 227.273 20.68 227.886 20.68C229.193 20.68 229.846 21.1467 229.846 22.08C229.846 22.64 229.646 23.9733 229.246 26.08C228.633 29.1467 228.326 31.28 228.326 32.48C228.326 32.88 228.42 33.2 228.606 33.44C228.82 33.68 229.086 33.8 229.406 33.8C229.913 33.8 230.526 33.48 231.246 32.84C231.966 32.1733 232.94 31.1067 234.166 29.64C234.486 29.2667 234.846 29.08 235.246 29.08C235.593 29.08 235.86 29.24 236.046 29.56C236.26 29.88 236.366 30.32 236.366 30.88C236.366 31.9467 236.113 32.7733 235.606 33.36C234.513 34.72 233.353 35.8667 232.126 36.8C230.9 37.7333 229.713 38.2 228.566 38.2C227.686 38.2 226.873 37.9067 226.126 37.32C225.406 36.7067 224.86 35.88 224.486 34.84C223.1 37.08 221.353 38.2 219.246 38.2ZM220.686 34.16C221.273 34.16 221.833 33.8133 222.366 33.12C222.9 32.4267 223.286 31.5067 223.526 30.36L225.006 23C223.886 23.0267 222.846 23.4533 221.886 24.28C220.953 25.08 220.206 26.1467 219.646 27.48C219.086 28.8133 218.806 30.2267 218.806 31.72C218.806 32.5467 218.966 33.16 219.286 33.56C219.633 33.96 220.1 34.16 220.686 34.16ZM235.955 38.2C234.942 38.2 234.222 37.6667 233.795 36.6C233.395 35.5333 233.195 33.8267 233.195 31.48C233.195 28.0133 233.689 24.72 234.675 21.6C234.915 20.8267 235.302 20.2667 235.835 19.92C236.395 19.5467 237.169 19.36 238.155 19.36C238.689 19.36 239.062 19.4267 239.275 19.56C239.489 19.6933 239.595 19.9467 239.595 20.32C239.595 20.7467 239.395 21.7067 238.995 23.2C238.729 24.2667 238.515 25.2 238.355 26C238.195 26.8 238.062 27.7867 237.955 28.96C238.835 26.6667 239.822 24.8 240.915 23.36C242.009 21.92 243.075 20.8933 244.115 20.28C245.182 19.6667 246.155 19.36 247.035 19.36C247.889 19.36 248.529 19.5867 248.955 20.04C249.409 20.4667 249.635 21.1067 249.635 21.96C249.635 22.6533 249.489 23.96 249.195 25.88C248.929 27.5067 248.715 29.0533 248.555 30.52C248.395 31.96 248.315 33.5733 248.315 35.36C248.315 36.3733 248.102 37.1067 247.675 37.56C247.275 37.9867 246.609 38.2 245.675 38.2C244.795 38.2 244.155 37.9733 243.755 37.52C243.355 37.0667 243.155 36.3867 243.155 35.48C243.155 34.4133 243.342 32.6533 243.715 30.2C244.035 28.0667 244.195 26.7067 244.195 26.12C244.195 25.6933 244.049 25.48 243.755 25.48C243.409 25.48 242.915 25.9333 242.275 26.84C241.662 27.72 241.022 28.8933 240.355 30.36C239.715 31.8267 239.195 33.3733 238.795 35C238.502 36.2533 238.155 37.1067 237.755 37.56C237.382 37.9867 236.782 38.2 235.955 38.2Z" fill="white"/>
</svg>
